<svg xmlns="http://www.w3.org/2000/svg" width="680" height="420" viewBox="0 0 680 420"><rect width="100%" height="100%" fill="#DDDDDD"/><path fill="#999999" d="m171.77 182.655-2.41 4.57q-.43.76-.92 1.1-.48.34-1.2.34-.76 0-1.64-.56-.88-.55-2.11-1.24-1.22-.68-2.86-1.24-1.64-.56-3.87-.56-2.01 0-3.53.49-1.51.48-2.53 1.35-1.03.86-1.53 2.07-.51 1.2-.51 2.64 0 1.84 1.03 3.06 1.02 1.23 2.72 2.09 1.69.87 3.85 1.55t4.43 1.46q2.26.77 4.42 1.8 2.16 1.02 3.86 2.59 1.69 1.57 2.71 3.83 1.03 2.27 1.03 5.51 0 3.53-1.21 6.61-1.2 3.08-3.52 5.36-2.33 2.29-5.67 3.6-3.35 1.32-7.67 1.32-2.49 0-4.9-.49t-4.62-1.39q-2.22-.9-4.16-2.16-1.95-1.26-3.46-2.8l2.85-4.65q.36-.5.93-.84.58-.35 1.23-.35.9 0 1.94.74t2.48 1.64q1.44.9 3.37 1.64 1.93.74 4.63.74 4.14 0 6.4-1.97 2.27-1.96 2.27-5.63 0-2.05-1.02-3.35-1.03-1.29-2.72-2.18-1.69-.88-3.85-1.49t-4.4-1.33q-2.23-.72-4.39-1.73-2.16-1.01-3.85-2.63-1.69-1.62-2.72-4.05-1.02-2.43-1.02-5.99 0-2.85 1.13-5.55 1.13-2.7 3.29-4.78 2.16-2.09 5.33-3.35 3.17-1.26 7.27-1.26 4.61 0 8.5 1.44 3.89 1.44 6.62 4.03Zm14.98 24.44h16.78q0-1.72-.49-3.25t-1.46-2.69q-.97-1.15-2.46-1.81-1.5-.67-3.48-.67-3.85 0-6.06 2.2-2.22 2.19-2.83 6.22Zm22.68 5.37h-22.86q.22 2.84 1.01 4.91.79 2.07 2.09 3.42 1.29 1.35 3.07 2.02 1.79.66 3.95.66t3.72-.5q1.57-.5 2.74-1.12 1.17-.61 2.05-1.11.88-.51 1.71-.51 1.12 0 1.66.83l2.55 3.24q-1.47 1.73-3.31 2.9t-3.83 1.87q-2 .7-4.07.99-2.07.29-4.02.29-3.85 0-7.16-1.28t-5.76-3.78q-2.45-2.5-3.85-6.19-1.41-3.69-1.41-8.55 0-3.78 1.23-7.11 1.22-3.33 3.51-5.8 2.28-2.46 5.58-3.9 3.29-1.44 7.43-1.44 3.49 0 6.45 1.11 2.95 1.12 5.07 3.26 2.13 2.14 3.33 5.26 1.21 3.11 1.21 7.11 0 2.01-.43 2.72-.44.7-1.66.7Zm17.64 17.35h-8.89v-36.94h5.43q1.73 0 2.27 1.62l.58 2.74q.97-1.08 2.03-1.98 1.06-.9 2.27-1.55t2.59-1.02q1.39-.38 3.04-.38 3.5 0 5.75 1.89t3.36 5.02q.87-1.84 2.16-3.15 1.3-1.31 2.85-2.14 1.54-.83 3.29-1.23 1.75-.39 3.51-.39 3.06 0 5.44.93 2.37.94 3.99 2.74 1.62 1.8 2.47 4.39.84 2.59.84 5.94v23.51h-8.89v-23.51q0-3.53-1.55-5.31-1.54-1.78-4.53-1.78-1.37 0-2.54.47t-2.05 1.35q-.88.88-1.39 2.21-.5 1.33-.5 3.06v23.51h-8.93v-23.51q0-3.71-1.49-5.4-1.5-1.69-4.38-1.69-1.94 0-3.62.95-1.67.96-3.11 2.61v27.04Zm80.03-52.06v52.06h-9.72v-52.06h9.72Zm19.11 52.06h-8.89v-36.94h5.44q1.73 0 2.27 1.62l.57 2.74q.97-1.08 2.04-1.98 1.06-.9 2.26-1.55 1.21-.65 2.6-1.02 1.38-.38 3.04-.38 3.49 0 5.74 1.89t3.37 5.02q.86-1.84 2.16-3.15 1.29-1.31 2.84-2.14 1.55-.83 3.29-1.23 1.75-.39 3.51-.39 3.06 0 5.44.93 2.38.94 4 2.74 1.62 1.8 2.46 4.39.85 2.59.85 5.94v23.51h-8.89v-23.51q0-3.53-1.55-5.31-1.55-1.78-4.54-1.78-1.37 0-2.54.47t-2.05 1.35q-.88.88-1.38 2.21-.51 1.33-.51 3.06v23.51h-8.93v-23.51q0-3.71-1.49-5.4-1.49-1.69-4.37-1.69-1.95 0-3.62.95-1.68.96-3.12 2.61v27.04Zm70.92-9.54v-6.23q-3.85.18-6.48.67-2.62.48-4.21 1.24-1.58.76-2.27 1.76-.68 1.01-.68 2.2 0 2.34 1.39 3.35 1.38 1.01 3.61 1.01 2.74 0 4.74-.99t3.9-3.01Zm-18.79-19.4-1.58-2.85q6.37-5.83 15.33-5.83 3.24 0 5.8 1.06 2.56 1.06 4.32 2.95 1.76 1.89 2.68 4.52.92 2.63.92 5.76v23.33h-4.03q-1.26 0-1.95-.38-.68-.38-1.08-1.53l-.79-2.66q-1.4 1.26-2.73 2.21-1.34.96-2.78 1.6-1.44.65-3.07.99-1.64.35-3.62.35-2.34 0-4.32-.63-1.98-.63-3.42-1.89-1.44-1.26-2.23-3.14-.8-1.87-.8-4.35 0-1.41.47-2.79.47-1.39 1.53-2.65t2.76-2.37q1.69-1.12 4.15-1.95 2.47-.83 5.75-1.35 3.27-.52 7.48-.63v-2.16q0-3.71-1.58-5.49-1.58-1.78-4.57-1.78-2.16 0-3.58.5-1.43.51-2.51 1.14-1.08.63-1.96 1.13-.88.51-1.96.51-.94 0-1.58-.49-.65-.49-1.05-1.13Zm49.32 9.57q1.66 0 2.88-.45 1.23-.45 2.04-1.24t1.22-1.91q.41-1.11.41-2.45 0-2.73-1.63-4.33-1.64-1.61-4.92-1.61-3.27 0-4.91 1.61-1.64 1.6-1.64 4.33 0 1.3.41 2.42.42 1.11 1.23 1.92.81.81 2.05 1.26 1.24.45 2.86.45Zm10.05 21.03q0-1.08-.65-1.77-.65-.68-1.77-1.06-1.11-.38-2.61-.56-1.49-.18-3.16-.27-1.68-.09-3.46-.16t-3.47-.29q-1.48.83-2.4 1.95-.92 1.11-.92 2.59 0 .97.49 1.82.49.84 1.55 1.45 1.06.62 2.75.96 1.69.34 4.14.34 2.49 0 4.29-.38 1.8-.38 2.97-1.04 1.17-.67 1.71-1.59.54-.91.54-1.99Zm-1.77-37.34h10.62v3.32q0 1.58-1.91 1.94l-3.31.61q.76 1.91.76 4.18 0 2.73-1.1 4.95-1.1 2.21-3.04 3.76-1.95 1.55-4.59 2.39-2.65.85-5.71.85-1.08 0-2.09-.11-1-.11-1.98-.29-1.72 1.05-1.72 2.34 0 1.12 1.02 1.64 1.03.52 2.72.74 1.69.22 3.85.27 2.16.05 4.43.23 2.27.18 4.43.63 2.16.45 3.85 1.43 1.69.97 2.72 2.64 1.02 1.68 1.02 4.3 0 2.45-1.2 4.76-1.21 2.3-3.49 4.1-2.29 1.8-5.62 2.9-3.33 1.1-7.58 1.1-4.17 0-7.27-.81-3.1-.81-5.15-2.16-2.05-1.35-3.06-3.12-1.01-1.76-1.01-3.67 0-2.59 1.57-4.34 1.57-1.74 4.3-2.79-1.47-.75-2.34-2.01-.86-1.26-.86-3.32 0-.82.3-1.71.31-.88.9-1.74.6-.87 1.5-1.64.9-.77 2.12-1.39-2.81-1.51-4.41-4.03-1.6-2.52-1.6-5.9 0-2.74 1.1-4.95 1.1-2.22 3.06-3.78 1.96-1.57 4.64-2.4 2.68-.82 5.85-.82 2.38 0 4.47.48 2.08.49 3.81 1.42Zm23.26 12.96h16.77q0-1.72-.48-3.25-.49-1.53-1.46-2.69-.97-1.15-2.47-1.81-1.49-.67-3.47-.67-3.85 0-6.07 2.2-2.21 2.19-2.82 6.22Zm22.68 5.37h-22.86q.21 2.84 1.01 4.91.79 2.07 2.08 3.42 1.3 1.35 3.08 2.02 1.78.66 3.94.66t3.73-.5q1.57-.5 2.74-1.12 1.17-.61 2.05-1.11.88-.51 1.71-.51 1.11 0 1.65.83l2.56 3.24q-1.48 1.73-3.31 2.9-1.84 1.17-3.84 1.87-1.99.7-4.06.99-2.07.29-4.02.29-3.85 0-7.16-1.28t-5.76-3.78q-2.45-2.5-3.85-6.19-1.41-3.69-1.41-8.55 0-3.78 1.23-7.11 1.22-3.33 3.51-5.8 2.28-2.46 5.58-3.9 3.29-1.44 7.43-1.44 3.49 0 6.44 1.11 2.96 1.12 5.08 3.26 2.12 2.14 3.33 5.26 1.21 3.11 1.21 7.11 0 2.01-.44 2.72-.43.7-1.65.7Zm17.64 17.35h-8.89v-36.94h5.43q1.73 0 2.27 1.62l.58 2.74q.97-1.08 2.03-1.98 1.06-.9 2.27-1.55 1.2-.65 2.59-1.02 1.39-.38 3.04-.38 3.49 0 5.74 1.89t3.37 5.02q.86-1.84 2.16-3.15 1.3-1.31 2.84-2.14 1.55-.83 3.3-1.23 1.74-.39 3.51-.39 3.06 0 5.43.93 2.38.94 4 2.74 1.62 1.8 2.47 4.39.84 2.59.84 5.94v23.51h-8.89v-23.51q0-3.53-1.55-5.31-1.55-1.78-4.53-1.78-1.37 0-2.54.47t-2.05 1.35q-.89.88-1.39 2.21-.5 1.33-.5 3.06v23.51h-8.93v-23.51q0-3.71-1.5-5.4-1.49-1.69-4.37-1.69-1.94 0-3.62.95-1.67.96-3.11 2.61v27.04Z"/></svg>